<?xml version="1.0" encoding="utf-8"?>
<!-- Generator: Adobe Illustrator 26.2.1, SVG Export Plug-In . SVG Version: 6.00 Build 0)  -->
<svg version="1.1" id="Layer_1" xmlns="http://www.w3.org/2000/svg" xmlns:xlink="http://www.w3.org/1999/xlink" x="0px" y="0px"
	 viewBox="0 0 2000 2000" style="enable-background:new 0 0 2000 2000;" xml:space="preserve">
<style type="text/css">
	.st0{fill:#FFB000;}
</style>
<rect y="0" width="2000" height="2000"/>
<g>
	<path class="st0" d="M386.9,1277.2c-24.1,0-42.6-4.3-55.4-13c-12.9-8.7-22.5-18.4-28.9-29.1h-8v35.1h-50.7V918.9h51.7v137.5h8
		c4-6.7,9.4-13.1,16.1-19.3c6.7-6.2,15.6-11.3,26.6-15.3c11-4,24.6-6,40.6-6c20.7,0,39.8,5,57.2,15.1c17.4,10,31.3,24.6,41.6,43.7
		c10.4,19.1,15.6,41.8,15.6,68.2v7.5c0,26.8-5.3,49.6-15.8,68.5c-10.5,18.9-24.4,33.4-41.6,43.4
		C426.6,1272.1,407.6,1277.2,386.9,1277.2z M371.9,1232c22.4,0,40.9-7.2,55.4-21.6c14.6-14.4,21.8-35,21.8-61.7v-4.5
		c0-26.4-7.2-46.8-21.6-61.2c-14.4-14.4-33-21.6-55.7-21.6c-22.1,0-40.4,7.2-54.9,21.6c-14.6,14.4-21.8,34.8-21.8,61.2v4.5
		c0,26.8,7.3,47.3,21.8,61.7C331.5,1224.8,349.8,1232,371.9,1232z"/>
	<path class="st0" d="M1360,1086.5v-63.7h-197.2v43.7h141v7l-146,133.5v63.2H1360v-43.6h-146.5v-6.5L1360,1086.5z"/>
	<path class="st0" d="M1442.1,989.1c-10,0-18.5-3.3-25.3-9.8c-6.9-6.5-10.3-15-10.3-25.3c0-10.4,3.4-18.8,10.3-25.3
		c6.9-6.5,15.3-9.8,25.3-9.8c10.4,0,18.9,3.3,25.6,9.8c6.7,6.5,10,15,10,25.3c0,10.4-3.3,18.8-10,25.3
		C1461,985.9,1452.5,989.1,1442.1,989.1z M1416,1270.1v-247.4h51.7v247.4H1416z"/>
	<path class="st0" d="M1638.7,1277.2c-25.1,0-47-5.3-65.7-15.8c-18.7-10.5-33.4-25.4-43.9-44.7c-10.5-19.2-15.8-41.6-15.8-67v-6
		c0-25.8,5.2-48.2,15.6-67.5c10.4-19.2,24.8-34.1,43.4-44.7c18.6-10.5,40.1-15.8,64.5-15.8c23.7,0,44.6,5.3,62.5,15.8
		c17.9,10.5,31.9,25.2,41.9,43.9c10,18.7,15.1,40.6,15.1,65.7v19.6h-190.2c0.7,21.7,7.9,39.1,21.8,51.9
		c13.9,12.9,31.2,19.3,51.9,19.3c19.4,0,34-4.3,43.9-13c9.9-8.7,17.5-18.7,22.8-30.1l42.6,22.1c-4.7,9.4-11.5,19.2-20.3,29.6
		c-8.9,10.4-20.5,19.1-34.9,26.1C1679.5,1273.6,1661.1,1277.2,1638.7,1277.2z M1566.4,1121.1h137c-1.3-18.7-8-33.4-20.1-43.9
		c-12-10.5-27.8-15.8-47.2-15.8c-19.4,0-35.2,5.3-47.4,15.8C1576.5,1087.7,1569.1,1102.4,1566.4,1121.1z"/>
	<polygon class="st0" points="1013.1,942 1013.1,765.9 860.5,677.8 707.9,765.9 707.9,942 860.5,1030.1 	"/>
	<path class="st0" d="M739.3,1076.9c-12-10.5-27.7-15.8-47.1-15.8c-19.4,0-35.1,5.3-47.3,15.8c-12.2,10.5-19.6,25.1-22.3,43.8h136.7
		C758,1102,751.4,1087.4,739.3,1076.9z"/>
	<path class="st0" d="M1005.4,1276.4c-25,0-46.9-5.3-65.6-15.8c-18.7-10.5-33.3-25.4-43.8-44.6c-10.5-19.2-15.8-41.5-15.8-66.8v-6
		c0-25.7,5.2-48.1,15.5-67.3c10.3-19.2,24.8-34,43.3-44.6c18.5-10.5,40-15.8,64.3-15.8c23.7,0,44.5,5.3,62.3,15.8
		c17.9,10.5,31.8,25.1,41.8,43.8c10,18.7,15,40.6,15,65.6v19.5H932.8c0.7,21.7,7.9,39,21.8,51.8c13.8,12.9,31.1,19.3,51.8,19.3
		c19.4,0,34-4.3,43.8-13c9.8-8.7,17.4-18.7,22.8-30l42.6,22c-4.7,9.3-11.4,19.2-20.3,29.5c-8.8,10.3-20.5,19-34.8,26
		C1046.1,1272.9,1027.8,1276.4,1005.4,1276.4z M933.3,1120.7H1070c-1.3-18.7-8-33.3-20-43.8c-12-10.5-27.7-15.8-47.1-15.8
		c-19.4,0-35.1,5.3-47.3,15.8C943.4,1087.4,936,1102,933.3,1120.7z"/>
	<path class="st0" d="M690.8,969.7l-152.6,88.1V1234l98.2,56.7h0l38,22l16.4,9.5l16.3-9.4l43.5-25.3h0l92.6-53.5v-176.2L690.8,969.7
		z M812,1160.2H622.2c0.7,21.7,7.9,39,21.8,51.8c13.8,12.9,31.1,19.3,51.8,19.3c19.4,0,34-4.4,43.8-13c9.9-8.7,17.4-18.7,22.8-30
		l42.5,22c-4.7,9.4-11.4,19.2-20.3,29.6c-8.9,10.3-20.5,19-34.8,26c-14.4,7-32.7,10.5-55.1,10.5c-25,0-46.9-5.2-65.6-15.8
		c-18.7-10.5-33.3-25.4-43.8-44.6c-10.5-19.2-15.8-41.5-15.8-66.8v-6c0-25.7,5.2-48.1,15.5-67.4c10.3-19.2,24.8-34,43.3-44.6
		c18.6-10.5,40-15.8,64.4-15.8c23.7,0,44.4,5.2,62.3,15.8c17.9,10.5,31.8,25.1,41.8,43.8c10,18.7,15,40.6,15,65.6V1160.2z"/>
</g>
</svg>
