<svg width="1293" height="1310" viewBox="0 0 1293 1310" fill="none" xmlns="http://www.w3.org/2000/svg">
<g filter="url(#filter0_ddd_7839_15)">
<path fill-rule="evenodd" clip-rule="evenodd" d="M119.095 168.488C119.095 153.895 135.549 145.367 147.472 153.781L536.796 428.486C550.044 437.834 568.326 428.359 568.326 412.145V321.375C568.326 314.875 565.168 308.781 559.857 305.034L166.029 27.1498C98.9723 -20.1652 9 30.5369 9 115.641V759.956C9 774.629 24.2763 784.307 37.5436 778.039L107.638 744.922C114.633 741.617 119.095 734.575 119.095 726.839V168.488ZM205.032 871.699C199.135 867.497 191.428 866.81 184.881 869.903L108.062 906.197C94.2488 912.723 92.5571 931.7 104.998 940.567L584.938 1282.61C619.135 1306.98 663.954 1306.93 698.103 1282.49L1179.14 938.126C1191.58 929.221 1189.82 910.215 1175.96 903.742L1098.89 867.752C1092.35 864.695 1084.66 865.406 1078.79 869.611L651.877 1175.22C645.623 1179.7 637.216 1179.71 630.952 1175.24L205.032 871.699ZM1163.35 723.634C1163.21 731.527 1167.73 738.762 1174.88 742.102L1244.42 774.578C1257.55 780.707 1272.63 771.285 1272.88 756.803L1283.96 117.692C1285.44 32.1605 1195.53 -20.1909 1127.72 26.718L722.948 306.71C717.549 310.445 714.326 316.592 714.326 323.158V413.402C714.326 429.532 732.439 439.027 745.704 429.851L1144.72 153.837C1156.78 145.498 1173.21 154.296 1172.96 168.953L1163.35 723.634Z" fill="white"/>
</g>
<defs>
<filter id="filter0_ddd_7839_15" x="0" y="0" width="1292.98" height="1309.85" filterUnits="userSpaceOnUse" color-interpolation-filters="sRGB">
<feFlood flood-opacity="0" result="BackgroundImageFix"/>
<feColorMatrix in="SourceAlpha" type="matrix" values="0 0 0 0 0 0 0 0 0 0 0 0 0 0 0 0 0 0 127 0" result="hardAlpha"/>
<feOffset/>
<feGaussianBlur stdDeviation="4.5"/>
<feComposite in2="hardAlpha" operator="out"/>
<feColorMatrix type="matrix" values="0 0 0 0 1 0 0 0 0 1 0 0 0 0 1 0 0 0 0.66 0"/>
<feBlend mode="normal" in2="BackgroundImageFix" result="effect1_dropShadow_7839_15"/>
<feColorMatrix in="SourceAlpha" type="matrix" values="0 0 0 0 0 0 0 0 0 0 0 0 0 0 0 0 0 0 127 0" result="hardAlpha"/>
<feOffset/>
<feGaussianBlur stdDeviation="2.5"/>
<feComposite in2="hardAlpha" operator="out"/>
<feColorMatrix type="matrix" values="0 0 0 0 1 0 0 0 0 0.777666 0 0 0 0 0.616667 0 0 0 0.25 0"/>
<feBlend mode="normal" in2="effect1_dropShadow_7839_15" result="effect2_dropShadow_7839_15"/>
<feColorMatrix in="SourceAlpha" type="matrix" values="0 0 0 0 0 0 0 0 0 0 0 0 0 0 0 0 0 0 127 0" result="hardAlpha"/>
<feOffset/>
<feGaussianBlur stdDeviation="2.5"/>
<feComposite in2="hardAlpha" operator="out"/>
<feColorMatrix type="matrix" values="0 0 0 0 1 0 0 0 0 0.777666 0 0 0 0 0.616667 0 0 0 0.25 0"/>
<feBlend mode="normal" in2="effect2_dropShadow_7839_15" result="effect3_dropShadow_7839_15"/>
<feBlend mode="normal" in="SourceGraphic" in2="effect3_dropShadow_7839_15" result="shape"/>
</filter>
</defs>
</svg>
