<svg width="1000" height="1000" viewBox="0 0 1000 1000" fill="none" xmlns="http://www.w3.org/2000/svg">
<rect width="1000" height="1000" fill="black"/>
<g clip-path="url(#clip0_1_149)">
<path d="M499.984 302.551C485.689 302.551 471.716 306.803 459.83 314.769C447.945 322.736 438.681 334.059 433.211 347.307C427.74 360.554 426.309 375.132 429.098 389.196C431.887 403.259 438.77 416.178 448.878 426.317C458.986 436.457 471.864 443.362 485.884 446.159C499.903 448.957 514.435 447.521 527.642 442.033C540.848 436.546 552.136 427.253 560.078 415.331C568.019 403.408 572.258 389.391 572.258 375.051C572.258 355.823 564.643 337.382 551.089 323.786C537.535 310.189 519.152 302.551 499.984 302.551ZM499.984 399.01C495.227 399.01 490.578 397.595 486.623 394.944C482.669 392.294 479.587 388.526 477.766 384.118C475.946 379.71 475.47 374.86 476.398 370.181C477.326 365.501 479.616 361.203 482.979 357.829C486.342 354.456 490.627 352.158 495.292 351.227C499.957 350.296 504.792 350.774 509.186 352.6C513.58 354.426 517.336 357.518 519.978 361.485C522.621 365.452 524.031 370.116 524.031 374.887C524.023 381.282 521.486 387.413 516.978 391.935C512.47 396.457 506.359 399.001 499.984 399.01Z" fill="#FF9344"/>
<path d="M360.461 433.48H194L235.558 475.135H360.395C364.366 475.144 368.171 476.73 370.979 479.547C373.786 482.363 375.367 486.18 375.376 490.163V600.068H261.281C258.53 600.059 255.895 598.959 253.95 597.008C252.005 595.057 250.908 592.413 250.9 589.654V558.413C250.908 555.656 252.006 553.016 253.952 551.07C255.898 549.124 258.533 548.032 261.281 548.032H354.679V506.344H261.281C247.517 506.353 234.32 511.841 224.587 521.604C214.855 531.367 209.383 544.606 209.375 558.413V589.654C209.392 603.458 214.866 616.692 224.597 626.453C234.327 636.214 247.52 641.705 261.281 641.723H416.967V490.13C416.94 475.108 410.978 460.709 400.386 450.09C389.794 439.471 375.436 433.498 360.461 433.48Z" fill="#39B8EF"/>
<path d="M738.719 506.344H640.163C636.033 506.344 632.072 504.698 629.152 501.769C626.232 498.839 624.591 494.866 624.591 490.723C624.591 486.58 626.232 482.607 629.152 479.678C632.072 476.748 636.033 475.103 640.163 475.103H764.541L806.066 433.448H640.163C625.02 433.448 610.497 439.482 599.79 450.223C589.082 460.964 583.066 475.533 583.066 490.723C583.066 505.914 589.082 520.482 599.79 531.223C610.497 541.964 625.02 547.999 640.163 547.999H738.719C740.091 547.986 741.451 548.245 742.722 548.763C743.993 549.28 745.149 550.045 746.124 551.014C747.098 551.982 747.871 553.134 748.399 554.404C748.927 555.674 749.199 557.037 749.199 558.413V589.654C749.19 592.413 748.094 595.057 746.149 597.008C744.204 598.959 741.568 600.059 738.818 600.068H583.033V641.723H738.719C752.477 641.705 765.666 636.213 775.391 626.451C785.117 616.689 790.584 603.455 790.592 589.654V558.413C790.592 544.609 785.128 531.37 775.401 521.606C765.674 511.842 752.48 506.353 738.719 506.344Z" fill="#39B8EF"/>
<path d="M479.221 641.723H520.746L531.259 495.963H468.741L479.221 641.723Z" fill="#39B8EF"/>
<path d="M575.707 655.86L501.101 730.701L426.494 655.86H403.267L501.101 754L598.934 655.86H575.707ZM501.101 246C377.15 246 261.609 312.404 196.234 420.233H215.551C278.857 322.389 386.217 262.477 501.101 262.477C615.984 262.477 723.344 322.389 786.65 420.233H806C740.592 312.404 625.051 246 501.101 246Z" fill="#39B8EF"/>
</g>
<defs>
<clipPath id="clip0_1_149">
<rect width="612" height="508" fill="white" transform="translate(194 246)"/>
</clipPath>
</defs>
</svg>
